<svg xmlns="http://www.w3.org/2000/svg" viewBox="0 0 556.34 556.34"><defs><style>.cls-1{fill:#fff;}</style></defs><g id="Layer_2" data-name="Layer 2"><g id="Layer_1-2" data-name="Layer 1"><path class="cls-1" d="M278.17,0C124.54,0,0,124.54,0,278.17S124.54,556.34,278.17,556.34,556.34,431.8,556.34,278.17,431.8,0,278.17,0ZM465,399.56a65.44,65.44,0,0,1-101.3,54.75A194.68,194.68,0,0,1,278.17,474c-108,0-195.83-87.85-195.83-195.83S170.19,82.35,278.17,82.35,474,170.19,474,278.17a194.68,194.68,0,0,1-19.69,85.53A65.18,65.18,0,0,1,465,399.56Z"/><path class="cls-1" d="M278.17,130.35c-81.51,0-147.83,66.31-147.83,147.83S196.66,426,278.17,426a147.08,147.08,0,0,0,57.63-11.7,65.43,65.43,0,0,1,78.5-78.5A147.08,147.08,0,0,0,426,278.17C426,196.66,359.68,130.35,278.17,130.35Z"/></g></g></svg>